<svg xmlns="http://www.w3.org/2000/svg" viewBox="0 0 1920 1080" preserveAspectRatio="xMidYMid slice"><defs><filter id="glow" x="-50%" y="-50%" width="200%" height="200%"><feGaussianBlur stdDeviation="1.4"/></filter></defs><circle cx="941" cy="605" r="0.46" fill="#bcdcff" opacity="0.47"/><circle cx="972" cy="84" r="1.53" fill="#ffd877" opacity="0.71"/><circle cx="546" cy="843" r="1.22" fill="#bcdcff" opacity="0.35"/><circle cx="451" cy="725" r="0.52" fill="#bcdcff" opacity="0.69"/><circle cx="338" cy="54" r="1.61" fill="#ffffff" opacity="0.98"/><circle cx="852" cy="1032" r="0.56" fill="#bcdcff" opacity="0.59"/><circle cx="1289" cy="303" r="0.54" fill="#bcdcff" opacity="0.99"/><circle cx="446" cy="590" r="0.76" fill="#ffffff" opacity="0.41"/><circle cx="675" cy="378" r="0.41" fill="#fff8d6" opacity="0.95"/><circle cx="1697" cy="508" r="0.63" fill="#ffd877" opacity="0.72"/><circle cx="1457" cy="705" r="0.49" fill="#bcdcff" opacity="0.46"/><circle cx="173" cy="51" r="0.88" fill="#ffffff" opacity="0.78"/><circle cx="1833" cy="350" r="0.91" fill="#bcdcff" opacity="0.65"/><circle cx="1609" cy="486" r="0.92" fill="#fff8d6" opacity="0.48"/><circle cx="1426" cy="142" r="0.68" fill="#ffe9a0" opacity="0.84"/><circle cx="1859" cy="1001" r="1.50" fill="#ffffff" opacity="0.82"/><circle cx="1064" cy="26" r="0.75" fill="#fff8d6" opacity="0.55"/><circle cx="755" cy="740" r="1.33" fill="#ffe9a0" opacity="0.49"/><circle cx="13" cy="388" r="1.12" fill="#ffffff" opacity="0.61"/><circle cx="1901" cy="492" r="1.52" fill="#bcdcff" opacity="0.71"/><circle cx="240" cy="856" r="1.55" fill="#ffffff" opacity="0.49"/><circle cx="296" cy="763" r="1.28" fill="#ffe9a0" opacity="0.76"/><circle cx="441" cy="896" r="0.54" fill="#ffffff" opacity="0.33"/><circle cx="40" cy="580" r="1.46" fill="#fff8d6" opacity="0.89"/><circle cx="948" cy="56" r="0.69" fill="#ffffff" opacity="0.64"/><circle cx="682" cy="248" r="0.71" fill="#ffffff" opacity="0.85"/><circle cx="316" cy="0" r="1.17" fill="#ffd877" opacity="0.36"/><circle cx="209" cy="516" r="0.88" fill="#ffffff" opacity="0.31"/><circle cx="866" cy="797" r="0.77" fill="#ffffff" opacity="0.95"/><circle cx="1227" cy="289" r="0.80" fill="#ffe9a0" opacity="0.35"/><circle cx="159" cy="73" r="0.56" fill="#ffffff" opacity="0.51"/><circle cx="1152" cy="474" r="0.83" fill="#ffe9a0" opacity="0.68"/><circle cx="1014" cy="455" r="0.47" fill="#ffffff" opacity="0.93"/><circle cx="957" cy="978" r="1.25" fill="#ffe9a0" opacity="0.62"/><circle cx="1701" cy="448" r="1.00" fill="#ffffff" opacity="0.79"/><circle cx="1756" cy="588" r="1.69" fill="#ffffff" opacity="0.74"/><circle cx="845" cy="81" r="1.66" fill="#ffffff" opacity="0.69"/><circle cx="751" cy="810" r="1.40" fill="#bcdcff" opacity="0.65"/><circle cx="1694" cy="779" r="0.37" fill="#bcdcff" opacity="0.56"/><circle cx="1901" cy="711" r="0.52" fill="#fff8d6" opacity="0.77"/><circle cx="384" cy="569" r="0.74" fill="#ffe9a0" opacity="0.32"/><circle cx="987" cy="37" r="0.84" fill="#ffffff" opacity="0.43"/><circle cx="447" cy="799" r="0.73" fill="#ffffff" opacity="0.94"/><circle cx="759" cy="896" r="0.55" fill="#ffd877" opacity="0.54"/><circle cx="1716" cy="613" r="0.42" fill="#bcdcff" opacity="0.41"/><circle cx="481" cy="434" r="1.01" fill="#ffffff" opacity="0.53"/><circle cx="116" cy="800" r="0.94" fill="#ffe9a0" opacity="0.69"/><circle cx="201" cy="437" r="0.61" fill="#ffffff" opacity="0.57"/><circle cx="244" cy="786" r="1.49" fill="#bcdcff" opacity="0.32"/><circle cx="535" cy="372" r="0.62" fill="#bcdcff" opacity="0.81"/><circle cx="441" cy="678" r="1.54" fill="#ffd877" opacity="0.96"/><circle cx="1816" cy="866" r="0.88" fill="#fff8d6" opacity="0.36"/><circle cx="257" cy="781" r="1.12" fill="#fff8d6" opacity="0.98"/><circle cx="677" cy="346" r="0.52" fill="#ffffff" opacity="0.94"/><circle cx="1517" cy="764" r="0.69" fill="#ffffff" opacity="0.71"/><circle cx="1361" cy="1038" r="1.15" fill="#ffd877" opacity="0.53"/><circle cx="1068" cy="612" r="0.47" fill="#ffffff" opacity="0.57"/><circle cx="1426" cy="569" r="1.04" fill="#ffd877" opacity="0.73"/><circle cx="167" cy="152" r="0.83" fill="#ffffff" opacity="0.95"/><circle cx="1775" cy="485" r="1.51" fill="#ffffff" opacity="0.61"/><circle cx="1705" cy="372" r="0.65" fill="#ffffff" opacity="0.47"/><circle cx="675" cy="374" r="1.67" fill="#ffffff" opacity="0.87"/><circle cx="1037" cy="56" r="0.95" fill="#bcdcff" opacity="0.41"/><circle cx="593" cy="262" r="1.03" fill="#fff8d6" opacity="0.70"/><circle cx="1125" cy="713" r="0.99" fill="#ffffff" opacity="0.37"/><circle cx="935" cy="495" r="0.31" fill="#ffffff" opacity="0.73"/><circle cx="169" cy="329" r="0.91" fill="#ffe9a0" opacity="0.77"/><circle cx="1678" cy="180" r="0.30" fill="#ffe9a0" opacity="0.89"/><circle cx="1628" cy="811" r="1.10" fill="#ffffff" opacity="0.94"/><circle cx="594" cy="664" r="0.39" fill="#ffd877" opacity="0.74"/><circle cx="573" cy="1024" r="1.13" fill="#ffffff" opacity="0.40"/><circle cx="1357" cy="14" r="0.64" fill="#ffd877" opacity="0.39"/><circle cx="109" cy="277" r="1.00" fill="#bcdcff" opacity="0.67"/><circle cx="1810" cy="96" r="0.79" fill="#fff8d6" opacity="0.36"/><circle cx="282" cy="355" r="0.46" fill="#ffffff" opacity="0.53"/><circle cx="792" cy="337" r="1.44" fill="#bcdcff" opacity="0.62"/><circle cx="1710" cy="725" r="0.80" fill="#bcdcff" opacity="0.82"/><circle cx="482" cy="843" r="0.66" fill="#bcdcff" opacity="0.73"/><circle cx="884" cy="934" r="0.45" fill="#ffd877" opacity="0.65"/><circle cx="431" cy="842" r="1.27" fill="#ffffff" opacity="0.44"/><circle cx="198" cy="489" r="1.36" fill="#ffd877" opacity="0.35"/><circle cx="544" cy="0" r="0.93" fill="#ffd877" opacity="0.81"/><circle cx="55" cy="536" r="0.92" fill="#ffffff" opacity="0.68"/><circle cx="1509" cy="463" r="1.28" fill="#ffffff" opacity="0.84"/><circle cx="1854" cy="862" r="1.60" fill="#ffd877" opacity="0.46"/><circle cx="741" cy="978" r="1.27" fill="#ffd877" opacity="0.91"/><circle cx="736" cy="854" r="0.54" fill="#ffffff" opacity="0.86"/><circle cx="1133" cy="372" r="1.18" fill="#bcdcff" opacity="0.36"/><circle cx="729" cy="97" r="1.03" fill="#ffffff" opacity="0.47"/><circle cx="1878" cy="672" r="0.65" fill="#ffe9a0" opacity="0.47"/><circle cx="460" cy="780" r="1.19" fill="#ffffff" opacity="0.58"/><circle cx="180" cy="144" r="0.32" fill="#ffe9a0" opacity="0.82"/><circle cx="1256" cy="8" r="0.33" fill="#ffd877" opacity="0.43"/><circle cx="1917" cy="15" r="0.33" fill="#bcdcff" opacity="0.46"/><circle cx="1173" cy="128" r="0.65" fill="#ffffff" opacity="0.63"/><circle cx="949" cy="31" r="1.09" fill="#ffffff" opacity="0.79"/><circle cx="1822" cy="327" r="1.54" fill="#ffffff" opacity="0.77"/><circle cx="28" cy="140" r="0.76" fill="#ffffff" opacity="0.65"/><circle cx="1118" cy="832" r="1.66" fill="#fff8d6" opacity="0.93"/><circle cx="336" cy="727" r="0.71" fill="#ffd877" opacity="0.86"/><circle cx="745" cy="269" r="0.74" fill="#ffe9a0" opacity="0.95"/><circle cx="3" cy="341" r="0.74" fill="#ffe9a0" opacity="0.88"/><circle cx="1459" cy="225" r="0.78" fill="#bcdcff" opacity="0.79"/><circle cx="1564" cy="606" r="0.71" fill="#ffffff" opacity="0.87"/><circle cx="1603" cy="806" r="1.26" fill="#ffffff" opacity="0.72"/><circle cx="1511" cy="1070" r="0.46" fill="#bcdcff" opacity="0.63"/><circle cx="726" cy="160" r="0.80" fill="#fff8d6" opacity="0.48"/><circle cx="319" cy="160" r="0.53" fill="#bcdcff" opacity="0.49"/><circle cx="652" cy="113" r="1.26" fill="#ffffff" opacity="0.42"/><circle cx="310" cy="102" r="1.13" fill="#bcdcff" opacity="0.53"/><circle cx="150" cy="651" r="1.48" fill="#ffd877" opacity="0.97"/><circle cx="962" cy="683" r="0.50" fill="#bcdcff" opacity="0.94"/><circle cx="476" cy="521" r="0.39" fill="#ffffff" opacity="0.39"/><circle cx="1257" cy="209" r="1.40" fill="#ffe9a0" opacity="0.80"/><circle cx="681" cy="710" r="1.11" fill="#ffe9a0" opacity="0.83"/><circle cx="1384" cy="428" r="1.52" fill="#ffffff" opacity="0.81"/><circle cx="1879" cy="5" r="0.43" fill="#ffe9a0" opacity="0.75"/><circle cx="1888" cy="285" r="0.38" fill="#fff8d6" opacity="0.85"/><circle cx="1274" cy="992" r="0.44" fill="#ffffff" opacity="0.45"/><circle cx="257" cy="128" r="1.48" fill="#ffffff" opacity="0.87"/><circle cx="905" cy="578" r="1.25" fill="#ffffff" opacity="0.37"/><circle cx="307" cy="144" r="1.44" fill="#ffffff" opacity="0.77"/><circle cx="391" cy="669" r="0.47" fill="#bcdcff" opacity="0.52"/><circle cx="1730" cy="598" r="1.02" fill="#ffd877" opacity="0.83"/><circle cx="562" cy="133" r="0.46" fill="#ffd877" opacity="0.43"/><circle cx="520" cy="638" r="0.30" fill="#ffe9a0" opacity="0.46"/><circle cx="684" cy="436" r="1.22" fill="#fff8d6" opacity="0.91"/><circle cx="279" cy="1050" r="0.42" fill="#ffffff" opacity="0.88"/><circle cx="804" cy="124" r="1.11" fill="#bcdcff" opacity="0.75"/><circle cx="1767" cy="181" r="0.56" fill="#ffd877" opacity="0.66"/><circle cx="1539" cy="824" r="1.41" fill="#ffffff" opacity="0.78"/><circle cx="1404" cy="297" r="1.60" fill="#ffe9a0" opacity="0.75"/><circle cx="1299" cy="1003" r="0.56" fill="#ffffff" opacity="0.83"/><circle cx="660" cy="626" r="0.78" fill="#bcdcff" opacity="0.90"/><circle cx="560" cy="168" r="0.50" fill="#ffffff" opacity="0.51"/><circle cx="1360" cy="833" r="1.33" fill="#ffffff" opacity="0.78"/><circle cx="1644" cy="545" r="1.42" fill="#bcdcff" opacity="0.59"/><circle cx="351" cy="906" r="0.71" fill="#bcdcff" opacity="0.79"/><circle cx="190" cy="841" r="1.59" fill="#ffffff" opacity="0.58"/><circle cx="810" cy="672" r="0.66" fill="#fff8d6" opacity="0.61"/><circle cx="938" cy="442" r="0.96" fill="#ffffff" opacity="0.96"/><circle cx="1788" cy="36" r="1.47" fill="#fff8d6" opacity="0.98"/><circle cx="238" cy="16" r="1.41" fill="#bcdcff" opacity="0.32"/><circle cx="560" cy="1026" r="1.36" fill="#ffd877" opacity="0.37"/><circle cx="556" cy="668" r="1.06" fill="#fff8d6" opacity="0.64"/><circle cx="89" cy="828" r="0.99" fill="#bcdcff" opacity="0.47"/><circle cx="1298" cy="587" r="0.63" fill="#ffd877" opacity="0.47"/><circle cx="492" cy="669" r="0.50" fill="#fff8d6" opacity="0.32"/><circle cx="522" cy="1037" r="0.92" fill="#bcdcff" opacity="0.42"/><circle cx="1392" cy="295" r="1.68" fill="#ffe9a0" opacity="0.63"/><circle cx="1758" cy="126" r="1.29" fill="#ffffff" opacity="0.77"/><circle cx="1696" cy="734" r="1.31" fill="#ffd877" opacity="0.94"/><circle cx="1001" cy="241" r="0.44" fill="#fff8d6" opacity="0.91"/><circle cx="672" cy="211" r="0.76" fill="#ffe9a0" opacity="0.66"/><circle cx="1854" cy="8" r="0.88" fill="#fff8d6" opacity="0.68"/><circle cx="285" cy="514" r="1.22" fill="#fff8d6" opacity="0.66"/><circle cx="1235" cy="1014" r="0.43" fill="#ffffff" opacity="0.74"/><circle cx="1153" cy="30" r="1.15" fill="#fff8d6" opacity="0.40"/><circle cx="1325" cy="125" r="1.33" fill="#ffe9a0" opacity="0.64"/><circle cx="1687" cy="464" r="0.39" fill="#ffe9a0" opacity="0.37"/><circle cx="1675" cy="889" r="0.84" fill="#bcdcff" opacity="0.85"/><circle cx="441" cy="244" r="0.90" fill="#ffffff" opacity="0.92"/><circle cx="268" cy="811" r="0.79" fill="#fff8d6" opacity="0.31"/><circle cx="1658" cy="516" r="1.45" fill="#ffe9a0" opacity="0.70"/><circle cx="1632" cy="960" r="1.43" fill="#fff8d6" opacity="0.84"/><circle cx="978" cy="1066" r="0.32" fill="#ffe9a0" opacity="0.62"/><circle cx="1264" cy="80" r="0.31" fill="#ffffff" opacity="0.70"/><circle cx="1219" cy="203" r="1.65" fill="#ffe9a0" opacity="0.46"/><circle cx="136" cy="239" r="0.51" fill="#ffffff" opacity="0.66"/><circle cx="653" cy="752" r="0.33" fill="#ffffff" opacity="0.92"/><circle cx="1281" cy="224" r="1.67" fill="#ffffff" opacity="0.56"/><circle cx="1744" cy="579" r="1.48" fill="#ffffff" opacity="0.48"/><circle cx="1903" cy="461" r="1.63" fill="#ffffff" opacity="0.71"/><circle cx="59" cy="32" r="1.61" fill="#ffffff" opacity="0.47"/><circle cx="200" cy="17" r="0.54" fill="#ffffff" opacity="0.84"/><circle cx="1336" cy="378" r="1.53" fill="#fff8d6" opacity="0.82"/><circle cx="1553" cy="798" r="1.59" fill="#ffffff" opacity="0.97"/><circle cx="1425" cy="802" r="0.61" fill="#ffffff" opacity="0.40"/><circle cx="1031" cy="592" r="1.55" fill="#ffd877" opacity="0.63"/><circle cx="162" cy="452" r="0.32" fill="#ffffff" opacity="0.71"/><circle cx="1740" cy="864" r="0.40" fill="#fff8d6" opacity="0.63"/><circle cx="1148" cy="114" r="0.39" fill="#fff8d6" opacity="0.87"/><circle cx="1806" cy="162" r="0.71" fill="#ffffff" opacity="0.44"/><circle cx="1303" cy="294" r="1.43" fill="#bcdcff" opacity="0.87"/><circle cx="1847" cy="113" r="0.98" fill="#ffe9a0" opacity="0.93"/><circle cx="886" cy="21" r="1.50" fill="#ffffff" opacity="0.94"/><circle cx="275" cy="262" r="1.02" fill="#ffe9a0" opacity="0.48"/><circle cx="1369" cy="679" r="0.63" fill="#ffffff" opacity="0.84"/><circle cx="1402" cy="117" r="1.38" fill="#ffffff" opacity="0.84"/><circle cx="736" cy="857" r="0.68" fill="#fff8d6" opacity="0.94"/><circle cx="1793" cy="824" r="0.87" fill="#ffd877" opacity="0.68"/><circle cx="1593" cy="540" r="0.49" fill="#fff8d6" opacity="0.93"/><circle cx="925" cy="10" r="0.54" fill="#ffffff" opacity="0.88"/><circle cx="1359" cy="635" r="0.40" fill="#fff8d6" opacity="0.49"/><circle cx="1620" cy="301" r="0.33" fill="#fff8d6" opacity="0.54"/><circle cx="1004" cy="1050" r="0.70" fill="#fff8d6" opacity="0.38"/><circle cx="227" cy="205" r="0.74" fill="#fff8d6" opacity="0.34"/><circle cx="1643" cy="569" r="1.02" fill="#ffe9a0" opacity="0.44"/><circle cx="1131" cy="827" r="1.29" fill="#ffe9a0" opacity="0.88"/><circle cx="478" cy="701" r="0.61" fill="#bcdcff" opacity="0.99"/><circle cx="1820" cy="355" r="1.28" fill="#ffffff" opacity="0.69"/><circle cx="1468" cy="512" r="1.02" fill="#ffffff" opacity="0.35"/><circle cx="350" cy="56" r="1.53" fill="#ffffff" opacity="0.39"/><circle cx="394" cy="829" r="1.23" fill="#bcdcff" opacity="0.65"/><circle cx="253" cy="195" r="1.40" fill="#ffffff" opacity="0.95"/><circle cx="5" cy="517" r="0.82" fill="#fff8d6" opacity="0.70"/><circle cx="1363" cy="1000" r="0.98" fill="#bcdcff" opacity="0.37"/><circle cx="1487" cy="1045" r="1.16" fill="#ffffff" opacity="0.64"/><circle cx="1522" cy="17" r="1.38" fill="#ffffff" opacity="0.59"/><circle cx="1047" cy="958" r="0.65" fill="#ffffff" opacity="0.62"/><circle cx="1490" cy="993" r="0.42" fill="#ffd877" opacity="0.86"/><circle cx="1222" cy="803" r="0.54" fill="#ffffff" opacity="0.80"/><circle cx="1528" cy="794" r="0.35" fill="#ffffff" opacity="0.75"/><circle cx="422" cy="128" r="0.68" fill="#ffffff" opacity="0.99"/><circle cx="1183" cy="808" r="1.22" fill="#ffe9a0" opacity="0.70"/><circle cx="1043" cy="597" r="1.61" fill="#ffe9a0" opacity="0.82"/><circle cx="363" cy="700" r="0.66" fill="#ffffff" opacity="0.38"/><circle cx="1567" cy="119" r="0.72" fill="#ffffff" opacity="0.35"/><circle cx="1675" cy="458" r="0.33" fill="#ffd877" opacity="0.88"/><circle cx="1473" cy="640" r="0.49" fill="#ffffff" opacity="0.48"/><circle cx="613" cy="989" r="0.57" fill="#fff8d6" opacity="0.50"/><circle cx="1661" cy="467" r="0.84" fill="#fff8d6" opacity="0.31"/><circle cx="72" cy="38" r="1.67" fill="#ffd877" opacity="0.66"/><circle cx="402" cy="265" r="0.89" fill="#ffffff" opacity="0.51"/><circle cx="1164" cy="713" r="0.46" fill="#ffffff" opacity="0.54"/><circle cx="159" cy="63" r="1.53" fill="#fff8d6" opacity="0.98"/><circle cx="1092" cy="200" r="0.38" fill="#fff8d6" opacity="0.44"/><circle cx="342" cy="206" r="0.69" fill="#ffe9a0" opacity="0.95"/><circle cx="1896" cy="805" r="1.58" fill="#ffffff" opacity="0.79"/><circle cx="925" cy="881" r="0.57" fill="#ffffff" opacity="0.35"/><circle cx="1275" cy="117" r="1.66" fill="#ffffff" opacity="0.90"/><circle cx="1601" cy="196" r="0.54" fill="#ffffff" opacity="0.85"/><circle cx="60" cy="241" r="1.58" fill="#ffffff" opacity="0.30"/><circle cx="284" cy="535" r="0.68" fill="#ffe9a0" opacity="0.43"/><circle cx="1355" cy="483" r="1.32" fill="#ffd877" opacity="0.51"/><circle cx="577" cy="527" r="0.71" fill="#ffffff" opacity="0.35"/><circle cx="1369" cy="471" r="0.67" fill="#ffffff" opacity="0.31"/><circle cx="1318" cy="678" r="1.24" fill="#ffe9a0" opacity="0.55"/><circle cx="716" cy="751" r="0.89" fill="#ffffff" opacity="0.54"/><circle cx="849" cy="15" r="0.34" fill="#ffffff" opacity="0.60"/><circle cx="1650" cy="871" r="0.43" fill="#ffe9a0" opacity="0.31"/><circle cx="638" cy="1003" r="0.84" fill="#ffffff" opacity="0.95"/><circle cx="804" cy="335" r="1.22" fill="#ffe9a0" opacity="0.66"/><circle cx="591" cy="71" r="0.38" fill="#bcdcff" opacity="0.56"/><circle cx="502" cy="292" r="0.66" fill="#ffd877" opacity="0.93"/><circle cx="1396" cy="444" r="0.62" fill="#fff8d6" opacity="0.53"/><circle cx="221" cy="528" r="1.23" fill="#ffffff" opacity="0.65"/><circle cx="468" cy="869" r="0.48" fill="#bcdcff" opacity="0.55"/><circle cx="862" cy="430" r="1.45" fill="#ffffff" opacity="0.99"/><circle cx="699" cy="173" r="1.68" fill="#ffd877" opacity="0.64"/><circle cx="696" cy="663" r="0.42" fill="#fff8d6" opacity="0.54"/><circle cx="1285" cy="383" r="1.03" fill="#ffffff" opacity="0.69"/><circle cx="267" cy="176" r="0.46" fill="#ffe9a0" opacity="0.59"/><circle cx="1347" cy="845" r="0.59" fill="#ffffff" opacity="0.99"/><circle cx="903" cy="394" r="0.88" fill="#fff8d6" opacity="0.39"/><circle cx="1003" cy="626" r="0.48" fill="#fff8d6" opacity="0.56"/><circle cx="659" cy="424" r="1.10" fill="#ffe9a0" opacity="0.53"/><circle cx="1796" cy="552" r="1.12" fill="#ffd877" opacity="0.84"/><circle cx="1149" cy="534" r="0.46" fill="#bcdcff" opacity="0.61"/><circle cx="714" cy="571" r="0.67" fill="#fff8d6" opacity="0.64"/><circle cx="285" cy="948" r="1.58" fill="#ffffff" opacity="0.95" filter="url(#glow)"/><circle cx="1846" cy="485" r="2.88" fill="#fff8d6" opacity="0.95" filter="url(#glow)"/><circle cx="1336" cy="844" r="2.71" fill="#fff8d6" opacity="0.95" filter="url(#glow)"/><circle cx="724" cy="572" r="2.30" fill="#fff8d6" opacity="0.95" filter="url(#glow)"/><circle cx="1052" cy="96" r="2.37" fill="#ffd877" opacity="0.95" filter="url(#glow)"/><circle cx="306" cy="161" r="1.89" fill="#fff8d6" opacity="0.95" filter="url(#glow)"/><circle cx="239" cy="996" r="2.47" fill="#ffe9a0" opacity="0.95" filter="url(#glow)"/><circle cx="1041" cy="26" r="1.63" fill="#ffffff" opacity="0.95" filter="url(#glow)"/><circle cx="1125" cy="38" r="2.19" fill="#ffffff" opacity="0.95" filter="url(#glow)"/><circle cx="109" cy="780" r="1.58" fill="#ffffff" opacity="0.95" filter="url(#glow)"/><circle cx="1172" cy="996" r="1.66" fill="#ffffff" opacity="0.95" filter="url(#glow)"/><circle cx="1232" cy="115" r="1.60" fill="#ffffff" opacity="0.95" filter="url(#glow)"/><circle cx="1615" cy="643" r="2.13" fill="#ffffff" opacity="0.95" filter="url(#glow)"/><circle cx="806" cy="487" r="1.98" fill="#ffffff" opacity="0.95" filter="url(#glow)"/><circle cx="1908" cy="32" r="2.62" fill="#bcdcff" opacity="0.95" filter="url(#glow)"/><circle cx="277" cy="227" r="2.13" fill="#fff8d6" opacity="0.95" filter="url(#glow)"/><circle cx="1221" cy="297" r="2.07" fill="#bcdcff" opacity="0.95" filter="url(#glow)"/><circle cx="593" cy="509" r="1.75" fill="#ffffff" opacity="0.95" filter="url(#glow)"/><circle cx="1214" cy="251" r="2.58" fill="#ffd877" opacity="0.95" filter="url(#glow)"/><circle cx="1779" cy="68" r="1.44" fill="#ffffff" opacity="0.95" filter="url(#glow)"/><circle cx="487" cy="107" r="1.49" fill="#ffffff" opacity="0.95" filter="url(#glow)"/><circle cx="1866" cy="354" r="1.47" fill="#ffffff" opacity="0.95" filter="url(#glow)"/><circle cx="1839" cy="518" r="2.59" fill="#ffd877" opacity="0.95" filter="url(#glow)"/><circle cx="950" cy="624" r="2.84" fill="#bcdcff" opacity="0.95" filter="url(#glow)"/><circle cx="1594" cy="178" r="2.80" fill="#ffe9a0" opacity="0.95" filter="url(#glow)"/><circle cx="761" cy="208" r="2.02" fill="#ffffff" opacity="0.95" filter="url(#glow)"/><circle cx="1342" cy="621" r="2.30" fill="#ffe9a0" opacity="0.95" filter="url(#glow)"/><circle cx="1678" cy="442" r="1.58" fill="#ffffff" opacity="0.95" filter="url(#glow)"/><circle cx="1745" cy="939" r="2.22" fill="#bcdcff" opacity="0.95" filter="url(#glow)"/><circle cx="1023" cy="818" r="2.38" fill="#bcdcff" opacity="0.95" filter="url(#glow)"/><circle cx="1477" cy="786" r="1.80" fill="#ffffff" opacity="0.95" filter="url(#glow)"/><circle cx="312" cy="189" r="2.71" fill="#ffd877" opacity="0.95" filter="url(#glow)"/><circle cx="1272" cy="855" r="2.56" fill="#fff8d6" opacity="0.95" filter="url(#glow)"/><circle cx="352" cy="849" r="1.47" fill="#bcdcff" opacity="0.95" filter="url(#glow)"/><circle cx="1581" cy="839" r="1.47" fill="#ffd877" opacity="0.95" filter="url(#glow)"/><circle cx="1451" cy="372" r="2.36" fill="#ffd877" opacity="0.95" filter="url(#glow)"/><circle cx="1502" cy="273" r="1.58" fill="#ffffff" opacity="0.95" filter="url(#glow)"/><circle cx="1072" cy="370" r="2.50" fill="#ffe9a0" opacity="0.95" filter="url(#glow)"/><circle cx="918" cy="89" r="2.77" fill="#ffe9a0" opacity="0.95" filter="url(#glow)"/><circle cx="448" cy="857" r="1.64" fill="#ffffff" opacity="0.95" filter="url(#glow)"/></svg>